<svg width="232" height="43" viewBox="0 0 232 43" fill="none" xmlns="http://www.w3.org/2000/svg">
<path d="M22.5604 32.3599C24.7364 32.3599 26.8164 31.9919 28.8004 31.2559C30.8164 30.4879 32.7364 29.2559 34.5604 27.5599L36.9604 30.4399C35.1364 32.1359 32.9284 33.4799 30.3364 34.4719C27.7444 35.4639 24.9924 35.9599 22.0804 35.9599C19.0724 35.9599 16.3524 35.5759 13.9204 34.8079C11.5204 34.0399 9.45639 32.9039 7.72839 31.3999C6.03239 29.8959 4.72039 28.0399 3.79239 25.8319C2.86439 23.6239 2.40039 21.0799 2.40039 18.1999C2.40039 15.3199 2.84839 12.7759 3.74439 10.5679C4.67239 8.35994 5.96839 6.50394 7.63239 4.99994C9.32839 3.49594 11.3604 2.35994 13.7284 1.59194C16.0964 0.82394 18.7204 0.439941 21.6004 0.439941C24.5124 0.439941 27.2644 0.935941 29.8564 1.92794C32.4484 2.91994 34.6564 4.26394 36.4804 5.95994L34.0804 8.83994C32.2564 7.14394 30.3364 5.92794 28.3204 5.19194C26.3364 4.42394 24.2564 4.03994 22.0804 4.03994C20.3524 4.03994 18.7364 4.32794 17.2324 4.90394C15.7284 5.44794 14.4324 6.29594 13.3444 7.44794C12.2564 8.59994 11.3924 10.0719 10.7524 11.8639C10.1444 13.6239 9.84039 15.7359 9.84039 18.1999C9.84039 20.6639 10.1444 22.7919 10.7524 24.5839C11.3924 26.3439 12.2724 27.7999 13.3924 28.9519C14.5444 30.1039 15.8884 30.9679 17.4244 31.5439C18.9924 32.0879 20.7044 32.3599 22.5604 32.3599ZM48.2423 34.9999H41.5223V10.5199H48.2423V34.9999ZM48.4823 4.03994C48.4823 4.99994 48.1463 5.84794 47.4743 6.58394C46.8343 7.28794 45.9703 7.63994 44.8823 7.63994C43.7943 7.63994 42.9143 7.28794 42.2423 6.58394C41.6023 5.84794 41.2823 4.99994 41.2823 4.03994C41.2823 3.07994 41.6023 2.24794 42.2423 1.54394C42.9143 0.807941 43.7943 0.439941 44.8823 0.439941C45.9383 0.439941 46.8023 0.807941 47.4743 1.54394C48.1463 2.24794 48.4823 3.07994 48.4823 4.03994ZM81.6042 34.9999H74.8842V19.8799C74.8842 17.5759 74.3082 15.9279 73.1562 14.9359C72.0042 13.9119 70.3402 13.3999 68.1642 13.3999H61.9242V34.9999H55.2042V10.0399H68.1642C72.7402 10.0399 76.1162 10.8719 78.2921 12.5359C80.5002 14.1679 81.6042 16.6159 81.6042 19.8799V34.9999ZM102.463 32.5999C104.031 32.5999 105.487 32.3279 106.831 31.7839C108.207 31.2399 109.551 30.4719 110.863 29.4799L112.783 32.3599C112.175 32.9039 111.455 33.3999 110.623 33.8479C109.823 34.2959 108.943 34.6799 107.983 34.9999C107.055 35.2879 106.079 35.5119 105.055 35.6719C104.031 35.8639 103.007 35.9599 101.983 35.9599C99.7115 35.9599 97.6315 35.6559 95.7435 35.0479C93.8875 34.4719 92.3035 33.6239 90.9915 32.5039C89.6795 31.3519 88.6555 29.9439 87.9195 28.2799C87.2155 26.6159 86.8635 24.6959 86.8635 22.5199C86.8635 20.3759 87.1995 18.4719 87.8715 16.8079C88.5755 15.1119 89.5355 13.7039 90.7515 12.5839C91.9995 11.4319 93.4715 10.5679 95.1675 9.99194C96.8635 9.38394 98.7355 9.07994 100.783 9.07994C102.703 9.07994 104.511 9.36794 106.207 9.94394C107.903 10.5199 109.375 11.3679 110.623 12.4879C111.871 13.5759 112.863 14.9039 113.599 16.4719C114.335 18.0399 114.703 19.8159 114.703 21.7999V25.1599H94.2075C94.5915 27.8159 95.5035 29.7199 96.9435 30.8719C98.4155 32.0239 100.255 32.5999 102.463 32.5999ZM100.783 12.1999C99.8555 12.1999 98.9915 12.3759 98.1915 12.7279C97.3915 13.0799 96.6875 13.6399 96.0795 14.4079C95.5035 15.1759 95.0235 16.1679 94.6395 17.3839C94.2875 18.5999 94.0955 20.0719 94.0635 21.7999H107.503C107.503 20.1359 107.311 18.6959 106.927 17.4799C106.543 16.2639 106.031 15.2719 105.391 14.5039C104.783 13.7039 104.063 13.1279 103.231 12.7759C102.431 12.3919 101.615 12.1999 100.783 12.1999ZM120.219 10.0399H145.179C149.755 10.0399 153.131 10.8719 155.307 12.5359C157.515 14.1679 158.619 16.6159 158.619 19.8799V34.9999H151.899V19.8799C151.899 17.5759 151.323 15.9279 150.171 14.9359C149.019 13.9119 147.355 13.3999 145.179 13.3999H142.779V34.9999H136.059V13.3999H126.939V34.9999H120.219V10.0399ZM172.039 34.9999H165.319V10.5199H172.039V34.9999ZM172.279 4.03994C172.279 4.99994 171.943 5.84794 171.271 6.58394C170.631 7.28794 169.767 7.63994 168.679 7.63994C167.591 7.63994 166.711 7.28794 166.039 6.58394C165.399 5.84794 165.079 4.99994 165.079 4.03994C165.079 3.07994 165.399 2.24794 166.039 1.54394C166.711 0.807941 167.591 0.439941 168.679 0.439941C169.735 0.439941 170.599 0.807941 171.271 1.54394C171.943 2.24794 172.279 3.07994 172.279 4.03994ZM193.881 22.3759L204.441 34.9999H196.761L190.041 26.9839L183.321 34.9999H175.641L186.201 22.3759L175.881 10.0399H183.561L190.041 17.8159L196.521 10.0399H204.201L193.881 22.3759Z" fill="white"/>
<path d="M45 8C47.2091 8 49 6.20914 49 4C49 1.79086 47.2091 0 45 0C42.7909 0 41 1.79086 41 4C41 6.20914 42.7909 8 45 8Z" fill="#FDA529"/>
<path d="M169 8C171.209 8 173 6.20914 173 4C173 1.79086 171.209 0 169 0C166.791 0 165 1.79086 165 4C165 6.20914 166.791 8 169 8Z" fill="#FDA529"/>
<path d="M208.064 12.4004C208.207 12.0291 208.491 11.7295 208.854 11.5677C209.218 11.4059 209.631 11.3951 210.002 11.5377L229.607 19.0643C229.978 19.2069 230.278 19.4911 230.44 19.8545C230.602 20.2179 230.612 20.6308 230.47 21.0022L222.943 40.607C222.801 40.9784 222.516 41.278 222.153 41.4398C221.789 41.6015 221.377 41.6123 221.005 41.4698L201.4 33.9432C201.029 33.8006 200.729 33.5164 200.568 33.153C200.406 32.7895 200.395 32.3766 200.538 32.0052L208.064 12.4004ZM213.666 14.5509L210.44 22.9529L221.643 27.2538L224.868 18.8518L213.666 14.5509ZM220.567 30.0546L209.365 25.7536L206.139 34.1558L217.342 38.4567L220.567 30.0546ZM209.465 12.9381L208.389 15.7388L211.19 16.814L212.265 14.0133L209.465 12.9381ZM210.652 18.2142L207.852 17.1391L206.776 19.9397L209.577 21.015L210.652 18.2142ZM206.239 21.3401L205.164 24.1407L207.964 25.216L209.04 22.4154L206.239 21.3401ZM207.427 26.6164L204.626 25.5411L203.551 28.3419L206.351 29.4171L207.427 26.6164ZM203.013 29.7422L201.938 32.5429L204.739 33.6181L205.814 30.8175L203.013 29.7422ZM229.069 20.4646L226.269 19.3893L225.193 22.1901L227.994 23.2652L229.069 20.4646ZM224.656 23.5905L223.581 26.3911L226.381 27.4663L227.457 24.6656L224.656 23.5905ZM225.844 28.8667L223.043 27.7915L221.968 30.5922L224.768 31.6673L225.844 28.8667ZM221.43 31.9924L220.355 34.7931L223.156 35.8685L224.231 33.0677L221.43 31.9924ZM222.618 37.2687L219.817 36.1936L218.742 38.9943L221.543 40.0695L222.618 37.2687Z" fill="white"/>
</svg>
